<svg width="164" height="164" viewBox="0 0 164 164" fill="none" xmlns="http://www.w3.org/2000/svg">
<g filter="url(#filter0_f_1273_2861)">
<path d="M105.78 43H57.98C49.7068 43 43 49.7068 43 57.98V105.78C43 114.053 49.7068 120.76 57.98 120.76H105.78C114.053 120.76 120.76 114.053 120.76 105.78V57.98C120.76 49.7068 114.053 43 105.78 43Z" fill="url(#paint0_linear_1273_2861)"/>
</g>
<path d="M105.78 43H57.98C49.7068 43 43 49.7068 43 57.98V105.78C43 114.053 49.7068 120.76 57.98 120.76H105.78C114.053 120.76 120.76 114.053 120.76 105.78V57.98C120.76 49.7068 114.053 43 105.78 43Z" fill="url(#paint1_linear_1273_2861)"/>
<g filter="url(#filter1_b_1273_2861)">
<path d="M130.029 65.876H82.229C73.9558 65.876 67.249 72.5828 67.249 80.856V128.656C67.249 136.929 73.9558 143.636 82.229 143.636H130.029C138.302 143.636 145.009 136.929 145.009 128.656V80.856C145.009 72.5828 138.302 65.876 130.029 65.876Z" fill="url(#paint2_linear_1273_2861)"/>
<path d="M130.029 65.626H82.229C73.8177 65.626 66.999 72.4447 66.999 80.856V128.656C66.999 137.067 73.8177 143.886 82.229 143.886H130.029C138.44 143.886 145.259 137.067 145.259 128.656V80.856C145.259 72.4447 138.44 65.626 130.029 65.626Z" stroke="url(#paint3_linear_1273_2861)" stroke-width="0.5"/>
</g>
<path fill-rule="evenodd" clip-rule="evenodd" d="M106.936 80C93.0175 80 86 89.9788 86 98.3001C86 103.338 87.9078 107.821 91.9991 109.49C92.6701 109.764 93.2709 109.5 93.4654 108.757C93.6009 108.242 93.9212 106.945 94.0631 106.405C94.2591 105.67 94.1826 105.413 93.6407 104.773C92.4613 103.381 91.7074 101.58 91.7074 99.0284C91.7074 91.6236 97.2475 84.9966 106.131 84.9966C113.998 84.9966 118.321 89.8051 118.321 96.2233C118.321 104.67 114.582 111.8 109.034 111.8C105.969 111.8 103.675 109.264 104.41 106.156C105.29 102.446 106.997 98.4387 106.997 95.7612C106.997 93.3641 105.709 91.3638 103.046 91.3638C99.9123 91.3638 97.3957 94.604 97.3957 98.9456C97.3957 101.711 98.3297 103.582 98.3297 103.582C98.3297 103.582 95.1229 117.166 94.5619 119.546C93.4431 124.284 94.3946 130.092 94.4743 130.678C94.5221 131.026 94.9683 131.109 95.1707 130.844C95.4592 130.468 99.1903 125.86 100.459 121.257C100.818 119.955 102.52 113.205 102.52 113.205C103.537 115.147 106.512 116.857 109.676 116.857C119.094 116.857 125.482 108.271 125.482 96.778C125.482 88.0918 118.123 80 106.936 80Z" fill="url(#paint4_linear_1273_2861)"/>
<defs>
<filter id="filter0_f_1273_2861" x="0" y="0" width="163.76" height="163.76" filterUnits="userSpaceOnUse" color-interpolation-filters="sRGB">
<feFlood flood-opacity="0" result="BackgroundImageFix"/>
<feBlend mode="normal" in="SourceGraphic" in2="BackgroundImageFix" result="shape"/>
<feGaussianBlur stdDeviation="21.5" result="effect1_foregroundBlur_1273_2861"/>
</filter>
<filter id="filter1_b_1273_2861" x="48.749" y="47.376" width="114.76" height="114.76" filterUnits="userSpaceOnUse" color-interpolation-filters="sRGB">
<feFlood flood-opacity="0" result="BackgroundImageFix"/>
<feGaussianBlur in="BackgroundImageFix" stdDeviation="9"/>
<feComposite in2="SourceAlpha" operator="in" result="effect1_backgroundBlur_1273_2861"/>
<feBlend mode="normal" in="SourceGraphic" in2="effect1_backgroundBlur_1273_2861" result="shape"/>
</filter>
<linearGradient id="paint0_linear_1273_2861" x1="115.2" y1="123.85" x2="49.4" y2="40.97" gradientUnits="userSpaceOnUse">
<stop stop-color="#AA83FF"/>
<stop offset="1" stop-color="#FF3FA4"/>
</linearGradient>
<linearGradient id="paint1_linear_1273_2861" x1="115.2" y1="123.85" x2="49.4" y2="40.97" gradientUnits="userSpaceOnUse">
<stop stop-color="#AA83FF"/>
<stop offset="1" stop-color="#FF3FA4"/>
</linearGradient>
<linearGradient id="paint2_linear_1273_2861" x1="71.639" y1="139.246" x2="140.619" y2="70.266" gradientUnits="userSpaceOnUse">
<stop stop-color="white" stop-opacity="0.2"/>
<stop offset="1" stop-color="white" stop-opacity="0.49"/>
</linearGradient>
<linearGradient id="paint3_linear_1273_2861" x1="72.738" y1="71.9917" x2="137.738" y2="141.492" gradientUnits="userSpaceOnUse">
<stop stop-color="white"/>
<stop offset="1" stop-color="white" stop-opacity="0"/>
</linearGradient>
<linearGradient id="paint4_linear_1273_2861" x1="105.741" y1="80" x2="105.741" y2="131" gradientUnits="userSpaceOnUse">
<stop stop-color="#DB1D76"/>
<stop offset="1" stop-color="#940B92"/>
</linearGradient>
</defs>
</svg>
