<svg width="164" height="164" viewBox="0 0 164 164" fill="none" xmlns="http://www.w3.org/2000/svg">
<g filter="url(#filter0_f_1273_2851)">
<path d="M105.78 43H57.98C49.7068 43 43 49.7068 43 57.98V105.78C43 114.053 49.7068 120.76 57.98 120.76H105.78C114.053 120.76 120.76 114.053 120.76 105.78V57.98C120.76 49.7068 114.053 43 105.78 43Z" fill="url(#paint0_linear_1273_2851)"/>
</g>
<path d="M105.78 43H57.98C49.7068 43 43 49.7068 43 57.98V105.78C43 114.053 49.7068 120.76 57.98 120.76H105.78C114.053 120.76 120.76 114.053 120.76 105.78V57.98C120.76 49.7068 114.053 43 105.78 43Z" fill="url(#paint1_linear_1273_2851)"/>
<g filter="url(#filter1_b_1273_2851)">
<path d="M130.029 65.876H82.229C73.9558 65.876 67.249 72.5828 67.249 80.856V128.656C67.249 136.929 73.9558 143.636 82.229 143.636H130.029C138.302 143.636 145.009 136.929 145.009 128.656V80.856C145.009 72.5828 138.302 65.876 130.029 65.876Z" fill="url(#paint2_linear_1273_2851)"/>
<path d="M130.029 65.626H82.229C73.8177 65.626 66.999 72.4447 66.999 80.856V128.656C66.999 137.067 73.8177 143.886 82.229 143.886H130.029C138.44 143.886 145.259 137.067 145.259 128.656V80.856C145.259 72.4447 138.44 65.626 130.029 65.626Z" stroke="url(#paint3_linear_1273_2851)" stroke-width="0.5"/>
</g>
<path d="M106.478 84.5906C113.281 84.5906 114.087 84.6166 116.773 84.7392C119.257 84.8524 120.606 85.2675 121.504 85.6164C122.693 86.0786 123.542 86.6307 124.434 87.5222C125.325 88.4138 125.877 89.2625 126.339 90.4517C126.688 91.3495 127.103 92.6985 127.217 95.1826C127.339 97.8691 127.365 98.675 127.365 105.478C127.365 112.281 127.339 113.087 127.217 115.773C127.103 118.257 126.688 119.606 126.339 120.504C125.877 121.693 125.325 122.542 124.434 123.433C123.542 124.325 122.693 124.877 121.504 125.339C120.606 125.688 119.257 126.103 116.773 126.216C114.087 126.339 113.281 126.365 106.478 126.365C99.6745 126.365 98.8689 126.339 96.1826 126.216C93.6986 126.103 92.3495 125.688 91.4518 125.339C90.2625 124.877 89.4138 124.325 88.5223 123.433C87.6308 122.542 87.0786 121.693 86.6164 120.504C86.2675 119.606 85.8524 118.257 85.7392 115.773C85.6166 113.087 85.5906 112.281 85.5906 105.478C85.5906 98.675 85.6166 97.8691 85.7392 95.1826C85.8524 92.6985 86.2675 91.3495 86.6164 90.4517C87.0786 89.2625 87.6307 88.4138 88.5223 87.5223C89.4138 86.6307 90.2625 86.0786 91.4518 85.6164C92.3495 85.2675 93.6986 84.8524 96.1826 84.7392C98.8692 84.6166 99.675 84.5906 106.478 84.5906ZM106.478 80C99.5585 80 98.6909 80.0293 95.9734 80.1533C93.2616 80.277 91.4095 80.7077 89.7889 81.3375C88.1135 81.9886 86.6927 82.8598 85.2762 84.2762C83.8598 85.6927 82.9886 87.1135 82.3376 88.7889C81.7077 90.4095 81.277 92.2615 81.1533 94.9733C81.0293 97.6908 81 98.5585 81 105.478C81 112.397 81.0293 113.265 81.1533 115.982C81.277 118.694 81.7077 120.546 82.3376 122.167C82.9886 123.842 83.8598 125.263 85.2762 126.679C86.6927 128.096 88.1135 128.967 89.7889 129.618C91.4095 130.248 93.2616 130.679 95.9734 130.802C98.6909 130.926 99.5585 130.956 106.478 130.956C113.397 130.956 114.265 130.926 116.982 130.802C119.694 130.679 121.546 130.248 123.167 129.618C124.842 128.967 126.263 128.096 127.68 126.679C129.096 125.263 129.967 123.842 130.618 122.167C131.248 120.546 131.679 118.694 131.802 115.982C131.926 113.265 131.956 112.397 131.956 105.478C131.956 98.5585 131.926 97.6908 131.802 94.9733C131.679 92.2615 131.248 90.4095 130.618 88.7889C129.967 87.1135 129.096 85.6927 127.68 84.2762C126.263 82.8598 124.842 81.9886 123.167 81.3375C121.546 80.7077 119.694 80.277 116.982 80.1533C114.265 80.0293 113.397 80 106.478 80Z" fill="url(#paint4_linear_1273_2851)"/>
<path d="M106.49 92.4062C99.2638 92.4062 93.4062 98.2638 93.4062 105.489C93.4062 112.715 99.2638 118.573 106.49 118.573C113.715 118.573 119.573 112.715 119.573 105.489C119.573 98.2638 113.715 92.4062 106.49 92.4062ZM106.49 113.982C101.799 113.982 97.9969 110.18 97.9969 105.489C97.9969 100.799 101.799 96.9968 106.49 96.9968C111.18 96.9968 114.982 100.799 114.982 105.489C114.982 110.18 111.18 113.982 106.49 113.982Z" fill="url(#paint5_linear_1273_2851)"/>
<defs>
<filter id="filter0_f_1273_2851" x="0" y="0" width="163.76" height="163.76" filterUnits="userSpaceOnUse" color-interpolation-filters="sRGB">
<feFlood flood-opacity="0" result="BackgroundImageFix"/>
<feBlend mode="normal" in="SourceGraphic" in2="BackgroundImageFix" result="shape"/>
<feGaussianBlur stdDeviation="21.5" result="effect1_foregroundBlur_1273_2851"/>
</filter>
<filter id="filter1_b_1273_2851" x="48.749" y="47.376" width="114.76" height="114.76" filterUnits="userSpaceOnUse" color-interpolation-filters="sRGB">
<feFlood flood-opacity="0" result="BackgroundImageFix"/>
<feGaussianBlur in="BackgroundImageFix" stdDeviation="9"/>
<feComposite in2="SourceAlpha" operator="in" result="effect1_backgroundBlur_1273_2851"/>
<feBlend mode="normal" in="SourceGraphic" in2="effect1_backgroundBlur_1273_2851" result="shape"/>
</filter>
<linearGradient id="paint0_linear_1273_2851" x1="115.2" y1="123.85" x2="49.4" y2="40.97" gradientUnits="userSpaceOnUse">
<stop stop-color="#AA83FF"/>
<stop offset="1" stop-color="#FF3FA4"/>
</linearGradient>
<linearGradient id="paint1_linear_1273_2851" x1="115.2" y1="123.85" x2="49.4" y2="40.97" gradientUnits="userSpaceOnUse">
<stop stop-color="#AA83FF"/>
<stop offset="1" stop-color="#FF3FA4"/>
</linearGradient>
<linearGradient id="paint2_linear_1273_2851" x1="71.639" y1="139.246" x2="140.619" y2="70.266" gradientUnits="userSpaceOnUse">
<stop stop-color="white" stop-opacity="0.2"/>
<stop offset="1" stop-color="white" stop-opacity="0.49"/>
</linearGradient>
<linearGradient id="paint3_linear_1273_2851" x1="72.738" y1="71.9917" x2="137.738" y2="141.492" gradientUnits="userSpaceOnUse">
<stop stop-color="white"/>
<stop offset="1" stop-color="white" stop-opacity="0"/>
</linearGradient>
<linearGradient id="paint4_linear_1273_2851" x1="106.478" y1="80" x2="106.478" y2="130.956" gradientUnits="userSpaceOnUse">
<stop stop-color="#DB1D76"/>
<stop offset="1" stop-color="#940B92"/>
</linearGradient>
<linearGradient id="paint5_linear_1273_2851" x1="106.489" y1="92.4062" x2="106.489" y2="118.573" gradientUnits="userSpaceOnUse">
<stop stop-color="#DB1D76"/>
<stop offset="1" stop-color="#940B92"/>
</linearGradient>
</defs>
</svg>
