<svg width="72" height="71" viewBox="0 0 72 71" fill="none" xmlns="http://www.w3.org/2000/svg">
<path d="M43.696 0H10.4264C4.66804 0 0 4.66804 0 10.4263V43.696C0 49.4543 4.66804 54.1224 10.4264 54.1224H43.696C49.4543 54.1224 54.1224 49.4543 54.1224 43.696V10.4263C54.1224 4.66804 49.4543 0 43.696 0Z" fill="url(#paint0_linear_729_2976)"/>
<g filter="url(#filter0_b_729_2976)">
<path d="M60.5734 15.9224H27.3038C21.5455 15.9224 16.8774 20.5904 16.8774 26.3487V59.6184C16.8774 65.3767 21.5455 70.0447 27.3038 70.0447H60.5734C66.3318 70.0447 70.9998 65.3767 70.9998 59.6184V26.3487C70.9998 20.5904 66.3318 15.9224 60.5734 15.9224Z" fill="url(#paint1_linear_729_2976)"/>
<path d="M60.5734 15.6724H27.3038C21.4074 15.6724 16.6274 20.4523 16.6274 26.3487V59.6184C16.6274 65.5148 21.4074 70.2947 27.3038 70.2947H60.5734C66.4698 70.2947 71.2498 65.5148 71.2498 59.6184V26.3487C71.2498 20.4523 66.4698 15.6724 60.5734 15.6724Z" stroke="url(#paint2_linear_729_2976)" stroke-width="0.5"/>
</g>
<path fill-rule="evenodd" clip-rule="evenodd" d="M61.7949 30.7739C62.4325 31.4221 62.892 32.2287 63.1276 33.1135C64.4839 38.663 64.1705 47.4274 63.1539 53.191C62.9184 54.0758 62.4589 54.8825 61.8212 55.5306C61.1835 56.1788 60.3899 56.6458 59.5195 56.8852C56.3327 57.7687 43.5068 57.7687 43.5068 57.7687C43.5068 57.7687 30.681 57.7687 27.4942 56.8852C26.6237 56.6458 25.8301 56.1788 25.1925 55.5306C24.5548 54.8825 24.0953 54.0758 23.8598 53.191C22.4955 47.6657 22.8695 38.8959 23.8334 33.1403C24.069 32.2555 24.5285 31.4488 25.1661 30.8007C25.8038 30.1525 26.5974 29.6855 27.4679 29.4461C30.6546 28.5627 43.4805 28.5359 43.4805 28.5359C43.4805 28.5359 56.3064 28.5359 59.4931 29.4193C60.3636 29.6587 61.1572 30.1258 61.7949 30.7739ZM50.0383 43.1523L39.3983 49.4164V36.8881L50.0383 43.1523Z" fill="url(#paint3_linear_729_2976)"/>
<defs>
<filter id="filter0_b_729_2976" x="-1.62256" y="-2.57764" width="91.1226" height="91.1223" filterUnits="userSpaceOnUse" color-interpolation-filters="sRGB">
<feFlood flood-opacity="0" result="BackgroundImageFix"/>
<feGaussianBlur in="BackgroundImageFix" stdDeviation="9"/>
<feComposite in2="SourceAlpha" operator="in" result="effect1_backgroundBlur_729_2976"/>
<feBlend mode="normal" in="SourceGraphic" in2="effect1_backgroundBlur_729_2976" result="shape"/>
</filter>
<linearGradient id="paint0_linear_729_2976" x1="50.2525" y1="56.273" x2="4.45453" y2="-1.41293" gradientUnits="userSpaceOnUse">
<stop stop-color="#AA83FF"/>
<stop offset="1" stop-color="#FF3FA4"/>
</linearGradient>
<linearGradient id="paint1_linear_729_2976" x1="19.933" y1="66.9892" x2="67.9443" y2="18.9779" gradientUnits="userSpaceOnUse">
<stop stop-color="white" stop-opacity="0.2"/>
<stop offset="1" stop-color="white" stop-opacity="0.49"/>
</linearGradient>
<linearGradient id="paint2_linear_729_2976" x1="20.6979" y1="20.179" x2="65.939" y2="68.5522" gradientUnits="userSpaceOnUse">
<stop stop-color="white"/>
<stop offset="1" stop-color="white" stop-opacity="0"/>
</linearGradient>
<linearGradient id="paint3_linear_729_2976" x1="43.5013" y1="28.5359" x2="43.5013" y2="57.7686" gradientUnits="userSpaceOnUse">
<stop stop-color="#DB1D76"/>
<stop offset="0.411458" stop-color="#BE1682"/>
<stop offset="1" stop-color="#940B92"/>
</linearGradient>
</defs>
</svg>
