<svg width="129" height="141" viewBox="0 0 129 141" fill="none" xmlns="http://www.w3.org/2000/svg">
<g filter="url(#filter0_f_1253_682)">
<path d="M86.696 43H53.4264C47.668 43 43 47.668 43 53.4264V86.696C43 92.4543 47.668 97.1224 53.4264 97.1224H86.696C92.4543 97.1224 97.1224 92.4543 97.1224 86.696V53.4264C97.1224 47.668 92.4543 43 86.696 43Z" fill="url(#paint0_linear_1253_682)"/>
</g>
<path d="M86.696 43H53.4264C47.668 43 43 47.668 43 53.4264V86.696C43 92.4543 47.668 97.1224 53.4264 97.1224H86.696C92.4543 97.1224 97.1224 92.4543 97.1224 86.696V53.4264C97.1224 47.668 92.4543 43 86.696 43Z" fill="url(#paint1_linear_1253_682)"/>
<g filter="url(#filter1_b_1253_682)">
<path d="M103.573 58.9229H70.3038C64.5455 58.9229 59.8774 63.5909 59.8774 69.3492V102.619C59.8774 108.377 64.5455 113.045 70.3038 113.045H103.573C109.332 113.045 114 108.377 114 102.619V69.3492C114 63.5909 109.332 58.9229 103.573 58.9229Z" fill="url(#paint2_linear_1253_682)"/>
<path d="M103.573 58.6729H70.3038C64.4074 58.6729 59.6274 63.4528 59.6274 69.3492V102.619C59.6274 108.515 64.4074 113.295 70.3038 113.295H103.573C109.47 113.295 114.25 108.515 114.25 102.619V69.3492C114.25 63.4528 109.47 58.6729 103.573 58.6729Z" stroke="url(#paint3_linear_1253_682)" stroke-width="0.5"/>
</g>
<path d="M81.3006 67L69.7406 70.95C69.5224 71.0086 69.3305 71.1393 69.1962 71.3209C69.0618 71.5025 68.9929 71.7242 69.0006 71.95V102.95C69.0006 103.215 69.1059 103.47 69.2935 103.657C69.481 103.845 69.7354 103.95 70.0006 103.95H70.3306L81.3306 99.69L93.6306 104L105.191 100C105.409 99.9414 105.601 99.8107 105.735 99.6291C105.869 99.4475 105.938 99.2258 105.931 99V68C105.931 67.7348 105.825 67.4804 105.638 67.2929C105.45 67.1054 105.196 67 104.931 67L104.601 67.07L93.6006 71.26L81.3006 67ZM93.6106 71.31V104V71.31ZM81.3406 99.69V67.1V99.69Z" fill="url(#paint4_linear_1253_682)"/>
<path d="M93.6106 71.31V104M81.3406 99.69V67.1M81.3006 67L69.7406 70.95C69.5224 71.0086 69.3305 71.1393 69.1962 71.3209C69.0618 71.5025 68.9929 71.7242 69.0006 71.95V102.95C69.0006 103.215 69.1059 103.47 69.2935 103.657C69.481 103.845 69.7354 103.95 70.0006 103.95H70.3306L81.3306 99.69L93.6306 104L105.191 100C105.409 99.9414 105.601 99.8107 105.735 99.6291C105.869 99.4475 105.938 99.2258 105.931 99V68C105.931 67.7348 105.825 67.4804 105.638 67.2929C105.45 67.1054 105.196 67 104.931 67L104.601 67.07L93.6006 71.26L81.3006 67Z" stroke="url(#paint5_linear_1253_682)" stroke-linecap="round" stroke-linejoin="round"/>
<g filter="url(#filter2_b_1253_682)">
<path d="M85.3887 77.6545C83.2404 75.4485 79.7583 75.4485 77.6113 77.6545C75.4629 79.8604 75.4629 83.4359 77.6113 85.6404L80.447 88.5522C81.0285 89.1493 81.9715 89.1493 82.553 88.5522L85.3887 85.6404C87.5371 83.4345 87.5371 79.859 85.3887 77.6545ZM83.3013 83.4971C82.3066 84.5184 80.6934 84.5184 79.6974 83.4971C78.7026 82.4757 78.7026 80.8192 79.6974 79.7965C80.6921 78.7751 82.3053 78.7751 83.3013 79.7965C84.296 80.8178 84.296 82.4743 83.3013 83.4971Z" fill="url(#paint6_linear_1253_682)"/>
</g>
<defs>
<filter id="filter0_f_1253_682" x="0" y="0" width="140.123" height="140.122" filterUnits="userSpaceOnUse" color-interpolation-filters="sRGB">
<feFlood flood-opacity="0" result="BackgroundImageFix"/>
<feBlend mode="normal" in="SourceGraphic" in2="BackgroundImageFix" result="shape"/>
<feGaussianBlur stdDeviation="21.5" result="effect1_foregroundBlur_1253_682"/>
</filter>
<filter id="filter1_b_1253_682" x="41.3774" y="40.4229" width="91.1226" height="91.1221" filterUnits="userSpaceOnUse" color-interpolation-filters="sRGB">
<feFlood flood-opacity="0" result="BackgroundImageFix"/>
<feGaussianBlur in="BackgroundImageFix" stdDeviation="9"/>
<feComposite in2="SourceAlpha" operator="in" result="effect1_backgroundBlur_1253_682"/>
<feBlend mode="normal" in="SourceGraphic" in2="effect1_backgroundBlur_1253_682" result="shape"/>
</filter>
<filter id="filter2_b_1253_682" x="58" y="58" width="47" height="49" filterUnits="userSpaceOnUse" color-interpolation-filters="sRGB">
<feFlood flood-opacity="0" result="BackgroundImageFix"/>
<feGaussianBlur in="BackgroundImageFix" stdDeviation="9"/>
<feComposite in2="SourceAlpha" operator="in" result="effect1_backgroundBlur_1253_682"/>
<feBlend mode="normal" in="SourceGraphic" in2="effect1_backgroundBlur_1253_682" result="shape"/>
</filter>
<linearGradient id="paint0_linear_1253_682" x1="93.2525" y1="99.2731" x2="47.4545" y2="41.5871" gradientUnits="userSpaceOnUse">
<stop stop-color="#AA83FF"/>
<stop offset="1" stop-color="#FF3FA4"/>
<stop offset="1" stop-color="#FF3FA4"/>
</linearGradient>
<linearGradient id="paint1_linear_1253_682" x1="93.2525" y1="99.2731" x2="47.4545" y2="41.5871" gradientUnits="userSpaceOnUse">
<stop stop-color="#AA83FF"/>
<stop offset="1" stop-color="#FF3FA4"/>
<stop offset="1" stop-color="#FF3FA4"/>
</linearGradient>
<linearGradient id="paint2_linear_1253_682" x1="62.933" y1="109.99" x2="110.944" y2="61.9784" gradientUnits="userSpaceOnUse">
<stop stop-color="white" stop-opacity="0.2"/>
<stop offset="1" stop-color="white" stop-opacity="0.49"/>
</linearGradient>
<linearGradient id="paint3_linear_1253_682" x1="63.6979" y1="63.1795" x2="108.939" y2="111.553" gradientUnits="userSpaceOnUse">
<stop stop-color="white"/>
<stop offset="1" stop-color="white" stop-opacity="0"/>
</linearGradient>
<linearGradient id="paint4_linear_1253_682" x1="87.4656" y1="67" x2="87.4656" y2="104" gradientUnits="userSpaceOnUse">
<stop stop-color="white" stop-opacity="0.73"/>
<stop offset="1" stop-color="white" stop-opacity="0.04"/>
</linearGradient>
<linearGradient id="paint5_linear_1253_682" x1="74.5" y1="69.5" x2="100.5" y2="101" gradientUnits="userSpaceOnUse">
<stop stop-color="white" stop-opacity="0.75"/>
<stop offset="1" stop-color="white" stop-opacity="0.08"/>
</linearGradient>
<linearGradient id="paint6_linear_1253_682" x1="81.5" y1="76.3611" x2="79.9122" y2="89.1642" gradientUnits="userSpaceOnUse">
<stop stop-color="#DB1D76"/>
<stop offset="1" stop-color="#940B92"/>
</linearGradient>
</defs>
</svg>
