<svg width="141" height="141" viewBox="0 0 141 141" fill="none" xmlns="http://www.w3.org/2000/svg">
<g filter="url(#filter0_f_1253_649)">
<path d="M86.6961 43H53.4264C47.6681 43 43 47.668 43 53.4264V86.6961C43 92.4544 47.6681 97.1225 53.4264 97.1225H86.6961C92.4544 97.1225 97.1225 92.4544 97.1225 86.6961V53.4264C97.1225 47.668 92.4544 43 86.6961 43Z" fill="url(#paint0_linear_1253_649)"/>
</g>
<path d="M86.6961 43H53.4264C47.6681 43 43 47.668 43 53.4264V86.6961C43 92.4544 47.6681 97.1225 53.4264 97.1225H86.6961C92.4544 97.1225 97.1225 92.4544 97.1225 86.6961V53.4264C97.1225 47.668 92.4544 43 86.6961 43Z" fill="url(#paint1_linear_1253_649)"/>
<g filter="url(#filter1_b_1253_649)">
<path d="M103.574 58.9229H70.3038C64.5455 58.9229 59.8774 63.5909 59.8774 69.3492V102.619C59.8774 108.377 64.5455 113.045 70.3038 113.045H103.574C109.332 113.045 114 108.377 114 102.619V69.3492C114 63.5909 109.332 58.9229 103.574 58.9229Z" fill="url(#paint2_linear_1253_649)"/>
<path d="M103.574 58.6729H70.3038C64.4074 58.6729 59.6274 63.4528 59.6274 69.3492V102.619C59.6274 108.515 64.4074 113.295 70.3038 113.295H103.574C109.47 113.295 114.25 108.515 114.25 102.619V69.3492C114.25 63.4528 109.47 58.6729 103.574 58.6729Z" stroke="url(#paint3_linear_1253_649)" stroke-width="0.5"/>
</g>
<path d="M87.1814 71.95C91.9163 71.95 92.4772 71.9681 94.3471 72.0534C96.076 72.1323 97.015 72.4212 97.6399 72.664C98.4676 72.9857 99.0583 73.37 99.6788 73.9905C100.299 74.611 100.684 75.2018 101.005 76.0295C101.248 76.6544 101.537 77.5933 101.616 79.3223C101.701 81.1921 101.719 81.753 101.719 86.4879C101.719 91.2229 101.701 91.7837 101.616 93.6536C101.537 95.3826 101.248 96.3215 101.005 96.9464C100.684 97.7741 100.299 98.3649 99.6789 98.9854C99.0583 99.6059 98.4676 99.9902 97.6399 100.312C97.015 100.555 96.076 100.844 94.3471 100.922C92.4775 101.008 91.9167 101.026 87.1814 101.026C82.4461 101.026 81.8853 101.008 80.0157 100.922C78.2867 100.844 77.3477 100.555 76.7229 100.312C75.8951 99.9902 75.3044 99.6059 74.6839 98.9854C74.0634 98.3649 73.6791 97.7741 73.3574 96.9464C73.1145 96.3215 72.8256 95.3826 72.7468 93.6536C72.6615 91.7837 72.6434 91.2229 72.6434 86.4879C72.6434 81.753 72.6615 81.1921 72.7468 79.3223C72.8256 77.5933 73.1145 76.6544 73.3574 76.0295C73.6791 75.2018 74.0633 74.611 74.6839 73.9905C75.3044 73.37 75.8951 72.9857 76.7229 72.664C77.3477 72.4212 78.2867 72.1323 80.0157 72.0534C81.8855 71.9681 82.4464 71.95 87.1814 71.95ZM87.1814 68.7549C82.3653 68.7549 81.7614 68.7753 79.87 68.8616C77.9825 68.9477 76.6935 69.2475 75.5655 69.6858C74.3994 70.139 73.4105 70.7453 72.4245 71.7312C71.4387 72.7171 70.8324 73.706 70.3792 74.8721C69.9408 76.0001 69.641 77.2891 69.555 79.1766C69.4687 81.068 69.4482 81.6719 69.4482 86.4879C69.4482 91.304 69.4687 91.9078 69.555 93.7993C69.641 95.6867 69.9408 96.9758 70.3792 98.1038C70.8324 99.2699 71.4387 100.259 72.4245 101.245C73.4105 102.231 74.3994 102.837 75.5655 103.29C76.6935 103.728 77.9825 104.028 79.87 104.114C81.7614 104.201 82.3653 104.221 87.1814 104.221C91.9974 104.221 92.6013 104.201 94.4927 104.114C96.3802 104.028 97.6693 103.728 98.7972 103.29C99.9633 102.837 100.952 102.231 101.938 101.245C102.924 100.259 103.53 99.2699 103.984 98.1038C104.422 96.9758 104.722 95.6867 104.808 93.7993C104.894 91.9078 104.914 91.304 104.914 86.4879C104.914 81.6719 104.894 81.068 104.808 79.1766C104.722 77.2891 104.422 76.0001 103.984 74.8721C103.53 73.706 102.924 72.7171 101.938 71.7312C100.952 70.7453 99.9633 70.139 98.7972 69.6858C97.6693 69.2475 96.3802 68.9477 94.4927 68.8616C92.6013 68.7753 91.9974 68.7549 87.1814 68.7549Z" fill="url(#paint4_linear_1253_649)"/>
<path d="M87.1902 77.3887C82.1609 77.3887 78.084 81.4656 78.084 86.4948C78.084 91.5241 82.1609 95.601 87.1902 95.601C92.2194 95.601 96.2964 91.5241 96.2964 86.4948C96.2964 81.4656 92.2194 77.3887 87.1902 77.3887ZM87.1902 92.4059C83.9256 92.4059 81.2791 89.7594 81.2791 86.4948C81.2791 83.2303 83.9256 80.5838 87.1902 80.5838C90.4548 80.5838 93.1012 83.2303 93.1012 86.4948C93.1012 89.7594 90.4548 92.4059 87.1902 92.4059Z" fill="url(#paint5_linear_1253_649)"/>
<defs>
<filter id="filter0_f_1253_649" x="0" y="0" width="140.123" height="140.122" filterUnits="userSpaceOnUse" color-interpolation-filters="sRGB">
<feFlood flood-opacity="0" result="BackgroundImageFix"/>
<feBlend mode="normal" in="SourceGraphic" in2="BackgroundImageFix" result="shape"/>
<feGaussianBlur stdDeviation="21.5" result="effect1_foregroundBlur_1253_649"/>
</filter>
<filter id="filter1_b_1253_649" x="41.3774" y="40.4229" width="91.1226" height="91.1221" filterUnits="userSpaceOnUse" color-interpolation-filters="sRGB">
<feFlood flood-opacity="0" result="BackgroundImageFix"/>
<feGaussianBlur in="BackgroundImageFix" stdDeviation="9"/>
<feComposite in2="SourceAlpha" operator="in" result="effect1_backgroundBlur_1253_649"/>
<feBlend mode="normal" in="SourceGraphic" in2="effect1_backgroundBlur_1253_649" result="shape"/>
</filter>
<linearGradient id="paint0_linear_1253_649" x1="93.2526" y1="99.2732" x2="47.4545" y2="41.5871" gradientUnits="userSpaceOnUse">
<stop stop-color="#AA83FF"/>
<stop offset="1" stop-color="#FF3FA4"/>
</linearGradient>
<linearGradient id="paint1_linear_1253_649" x1="93.2526" y1="99.2732" x2="47.4545" y2="41.5871" gradientUnits="userSpaceOnUse">
<stop stop-color="#AA83FF"/>
<stop offset="1" stop-color="#FF3FA4"/>
</linearGradient>
<linearGradient id="paint2_linear_1253_649" x1="62.933" y1="109.99" x2="110.944" y2="61.9784" gradientUnits="userSpaceOnUse">
<stop stop-color="white" stop-opacity="0.2"/>
<stop offset="1" stop-color="white" stop-opacity="0.49"/>
</linearGradient>
<linearGradient id="paint3_linear_1253_649" x1="63.6979" y1="63.1795" x2="108.939" y2="111.553" gradientUnits="userSpaceOnUse">
<stop stop-color="white"/>
<stop offset="1" stop-color="white" stop-opacity="0"/>
</linearGradient>
<linearGradient id="paint4_linear_1253_649" x1="87.1814" y1="68.7549" x2="87.1814" y2="104.221" gradientUnits="userSpaceOnUse">
<stop stop-color="#DB1D76"/>
<stop offset="1" stop-color="#940B92"/>
</linearGradient>
<linearGradient id="paint5_linear_1253_649" x1="87.1902" y1="77.3887" x2="87.1902" y2="95.601" gradientUnits="userSpaceOnUse">
<stop stop-color="#DB1D76"/>
<stop offset="1" stop-color="#940B92"/>
</linearGradient>
</defs>
</svg>
