<svg width="72" height="71" viewBox="0 0 72 71" fill="none" xmlns="http://www.w3.org/2000/svg">
<path d="M43.6961 0H10.4264C4.66805 0 0 4.66805 0 10.4264V43.6961C0 49.4544 4.66805 54.1225 10.4264 54.1225H43.6961C49.4544 54.1225 54.1225 49.4544 54.1225 43.6961V10.4264C54.1225 4.66805 49.4544 0 43.6961 0Z" fill="url(#paint0_linear_729_2966)"/>
<g filter="url(#filter0_b_729_2966)">
<path d="M60.5736 15.9226H27.3038C21.5455 15.9226 16.8774 20.5907 16.8774 26.349V59.6187C16.8774 65.377 21.5455 70.0451 27.3038 70.0451H60.5736C66.3319 70.0451 70.9999 65.377 70.9999 59.6187V26.349C70.9999 20.5907 66.3319 15.9226 60.5736 15.9226Z" fill="url(#paint1_linear_729_2966)"/>
<path d="M60.5736 15.6726H27.3038C21.4074 15.6726 16.6274 20.4526 16.6274 26.349V59.6187C16.6274 65.5151 21.4074 70.2951 27.3038 70.2951H60.5736C66.47 70.2951 71.2499 65.5151 71.2499 59.6187V26.349C71.2499 20.4526 66.47 15.6726 60.5736 15.6726Z" stroke="url(#paint2_linear_729_2966)" stroke-width="0.5"/>
</g>
<path d="M44.1814 28.9498C48.9163 28.9498 49.4772 28.9679 51.3471 29.0532C53.076 29.132 54.015 29.4209 54.6399 29.6638C55.4676 29.9854 56.0583 30.3697 56.6788 30.9902C57.2994 31.6108 57.6837 32.2015 58.0054 33.0292C58.2482 33.6541 58.5371 34.5931 58.6159 36.322C58.7012 38.1919 58.7193 38.7528 58.7193 43.4877C58.7193 48.2226 58.7012 48.7835 58.6159 50.6534C58.5371 52.3823 58.2482 53.3213 58.0054 53.9461C57.6837 54.7739 57.2994 55.3646 56.6789 55.9851C56.0583 56.6057 55.4676 56.9899 54.6399 57.3116C54.015 57.5545 53.076 57.8434 51.3471 57.9222C49.4775 58.0075 48.9167 58.0256 44.1814 58.0256C39.4461 58.0256 38.8853 58.0075 37.0157 57.9222C35.2867 57.8434 34.3477 57.5545 33.7229 57.3116C32.8951 56.9899 32.3044 56.6057 31.6839 55.9851C31.0634 55.3646 30.6791 54.7739 30.3574 53.9461C30.1145 53.3213 29.8256 52.3823 29.7468 50.6534C29.6615 48.7835 29.6434 48.2226 29.6434 43.4877C29.6434 38.7528 29.6615 38.1919 29.7468 36.322C29.8256 34.5931 30.1145 33.6541 30.3574 33.0292C30.6791 32.2015 31.0633 31.6108 31.6839 30.9903C32.3044 30.3697 32.8951 29.9854 33.7229 29.6638C34.3477 29.4209 35.2867 29.132 37.0157 29.0532C38.8855 28.9679 39.4464 28.9498 44.1814 28.9498ZM44.1814 25.7546C39.3653 25.7546 38.7614 25.7751 36.87 25.8614C34.9825 25.9474 33.6935 26.2472 32.5655 26.6856C31.3994 27.1387 30.4105 27.7451 29.4245 28.7309C28.4387 29.7168 27.8324 30.7058 27.3792 31.8719C26.9408 32.9998 26.641 34.2889 26.555 36.1764C26.4687 38.0678 26.4482 38.6717 26.4482 43.4877C26.4482 48.3037 26.4687 48.9076 26.555 50.799C26.641 52.6865 26.9408 53.9756 27.3792 55.1035C27.8324 56.2696 28.4387 57.2586 29.4245 58.2445C30.4105 59.2303 31.3994 59.8367 32.5655 60.2898C33.6935 60.7282 34.9825 61.028 36.87 61.114C38.7614 61.2003 39.3653 61.2208 44.1814 61.2208C48.9974 61.2208 49.6013 61.2003 51.4927 61.114C53.3802 61.028 54.6693 60.7282 55.7972 60.2898C56.9633 59.8367 57.9523 59.2303 58.9382 58.2445C59.924 57.2586 60.5304 56.2696 60.9836 55.1035C61.4219 53.9756 61.7217 52.6865 61.8078 50.799C61.8941 48.9076 61.9145 48.3037 61.9145 43.4877C61.9145 38.6717 61.8941 38.0678 61.8078 36.1764C61.7217 34.2889 61.4219 32.9998 60.9836 31.8719C60.5304 30.7058 59.924 29.7168 58.9382 28.7309C57.9523 27.7451 56.9633 27.1387 55.7972 26.6856C54.6693 26.2472 53.3802 25.9474 51.4927 25.8614C49.6013 25.7751 48.9974 25.7546 44.1814 25.7546Z" fill="url(#paint3_linear_729_2966)"/>
<path d="M44.1902 34.3884C39.1609 34.3884 35.084 38.4654 35.084 43.4946C35.084 48.5238 39.1609 52.6008 44.1902 52.6008C49.2194 52.6008 53.2964 48.5238 53.2964 43.4946C53.2964 38.4654 49.2194 34.3884 44.1902 34.3884ZM44.1902 49.4056C40.9256 49.4056 38.2791 46.7592 38.2791 43.4946C38.2791 40.23 40.9256 37.5836 44.1902 37.5836C47.4548 37.5836 50.1012 40.23 50.1012 43.4946C50.1012 46.7592 47.4548 49.4056 44.1902 49.4056Z" fill="url(#paint4_linear_729_2966)"/>
<defs>
<filter id="filter0_b_729_2966" x="-1.62256" y="-2.57739" width="91.1226" height="91.1226" filterUnits="userSpaceOnUse" color-interpolation-filters="sRGB">
<feFlood flood-opacity="0" result="BackgroundImageFix"/>
<feGaussianBlur in="BackgroundImageFix" stdDeviation="9"/>
<feComposite in2="SourceAlpha" operator="in" result="effect1_backgroundBlur_729_2966"/>
<feBlend mode="normal" in="SourceGraphic" in2="effect1_backgroundBlur_729_2966" result="shape"/>
</filter>
<linearGradient id="paint0_linear_729_2966" x1="50.2526" y1="56.2732" x2="4.45454" y2="-1.41293" gradientUnits="userSpaceOnUse">
<stop stop-color="#AA83FF"/>
<stop offset="1" stop-color="#FF3FA4"/>
</linearGradient>
<linearGradient id="paint1_linear_729_2966" x1="19.933" y1="66.9896" x2="67.9444" y2="18.9781" gradientUnits="userSpaceOnUse">
<stop stop-color="white" stop-opacity="0.2"/>
<stop offset="1" stop-color="white" stop-opacity="0.49"/>
</linearGradient>
<linearGradient id="paint2_linear_729_2966" x1="20.6979" y1="20.1792" x2="65.9392" y2="68.5526" gradientUnits="userSpaceOnUse">
<stop stop-color="white"/>
<stop offset="1" stop-color="white" stop-opacity="0"/>
</linearGradient>
<linearGradient id="paint3_linear_729_2966" x1="44.1814" y1="25.7546" x2="44.1814" y2="61.2208" gradientUnits="userSpaceOnUse">
<stop stop-color="#DB1D76"/>
<stop offset="1" stop-color="#940B92"/>
</linearGradient>
<linearGradient id="paint4_linear_729_2966" x1="44.1902" y1="34.3884" x2="44.1902" y2="52.6008" gradientUnits="userSpaceOnUse">
<stop stop-color="#DB1D76"/>
<stop offset="1" stop-color="#940B92"/>
</linearGradient>
</defs>
</svg>
