<svg width="72" height="71" viewBox="0 0 72 71" fill="none" xmlns="http://www.w3.org/2000/svg">
<path d="M43.696 0H10.4264C4.66804 0 0 4.66804 0 10.4264V43.696C0 49.4543 4.66804 54.1224 10.4264 54.1224H43.696C49.4543 54.1224 54.1224 49.4543 54.1224 43.696V10.4264C54.1224 4.66804 49.4543 0 43.696 0Z" fill="url(#paint0_linear_729_3020)"/>
<g filter="url(#filter0_b_729_3020)">
<path d="M60.5734 15.9229H27.3038C21.5455 15.9229 16.8774 20.5909 16.8774 26.3492V59.6189C16.8774 65.3772 21.5455 70.0452 27.3038 70.0452H60.5734C66.3318 70.0452 70.9998 65.3772 70.9998 59.6189V26.3492C70.9998 20.5909 66.3318 15.9229 60.5734 15.9229Z" fill="url(#paint1_linear_729_3020)"/>
<path d="M60.5734 15.6729H27.3038C21.4074 15.6729 16.6274 20.4528 16.6274 26.3492V59.6189C16.6274 65.5153 21.4074 70.2952 27.3038 70.2952H60.5734C66.4698 70.2952 71.2498 65.5153 71.2498 59.6189V26.3492C71.2498 20.4528 66.4698 15.6729 60.5734 15.6729Z" stroke="url(#paint2_linear_729_3020)" stroke-width="0.5"/>
</g>
<path d="M51 53H59M55 49V57" stroke="url(#paint3_linear_729_3020)" stroke-width="2" stroke-linecap="round" stroke-linejoin="round"/>
<rect x="26.5" y="28.5" width="35" height="26.5294" rx="2.5" fill="url(#paint4_linear_729_3020)" stroke="url(#paint5_linear_729_3020)"/>
<path d="M26.9473 34.6316L43.9999 42.2105L61.0525 34.6316" stroke="url(#paint6_linear_729_3020)" stroke-linecap="round" stroke-linejoin="round"/>
<defs>
<filter id="filter0_b_729_3020" x="-1.62256" y="-2.57715" width="91.1226" height="91.1223" filterUnits="userSpaceOnUse" color-interpolation-filters="sRGB">
<feFlood flood-opacity="0" result="BackgroundImageFix"/>
<feGaussianBlur in="BackgroundImageFix" stdDeviation="9"/>
<feComposite in2="SourceAlpha" operator="in" result="effect1_backgroundBlur_729_3020"/>
<feBlend mode="normal" in="SourceGraphic" in2="effect1_backgroundBlur_729_3020" result="shape"/>
</filter>
<linearGradient id="paint0_linear_729_3020" x1="50.2525" y1="56.2731" x2="4.45453" y2="-1.41293" gradientUnits="userSpaceOnUse">
<stop stop-color="#AA83FF"/>
<stop offset="1" stop-color="#FF3FA4"/>
<stop offset="1" stop-color="#FF3FA4"/>
</linearGradient>
<linearGradient id="paint1_linear_729_3020" x1="19.933" y1="66.9897" x2="67.9443" y2="18.9784" gradientUnits="userSpaceOnUse">
<stop stop-color="white" stop-opacity="0.2"/>
<stop offset="1" stop-color="white" stop-opacity="0.49"/>
</linearGradient>
<linearGradient id="paint2_linear_729_3020" x1="20.6979" y1="20.1795" x2="65.939" y2="68.5527" gradientUnits="userSpaceOnUse">
<stop stop-color="white"/>
<stop offset="1" stop-color="white" stop-opacity="0"/>
</linearGradient>
<linearGradient id="paint3_linear_729_3020" x1="55" y1="49" x2="55" y2="57" gradientUnits="userSpaceOnUse">
<stop stop-color="#DB1D76"/>
<stop offset="1" stop-color="#940B92"/>
</linearGradient>
<linearGradient id="paint4_linear_729_3020" x1="29" y1="29.5294" x2="60.947" y2="53.4019" gradientUnits="userSpaceOnUse">
<stop stop-color="white" stop-opacity="0.64"/>
<stop offset="1" stop-color="white" stop-opacity="0"/>
</linearGradient>
<linearGradient id="paint5_linear_729_3020" x1="44" y1="28.4737" x2="43.0541" y2="54.0702" gradientUnits="userSpaceOnUse">
<stop offset="0.171111" stop-color="white"/>
<stop offset="1" stop-color="white" stop-opacity="0"/>
</linearGradient>
<linearGradient id="paint6_linear_729_3020" x1="43.9999" y1="31.6" x2="43.9999" y2="42.2105" gradientUnits="userSpaceOnUse">
<stop stop-color="white"/>
<stop offset="1" stop-color="white" stop-opacity="0.23"/>
</linearGradient>
</defs>
</svg>
