<svg width="103" height="102" viewBox="0 0 103 102" fill="none" xmlns="http://www.w3.org/2000/svg">
<path d="M62.78 0H14.98C6.70679 0 0 6.70677 0 14.98V62.78C0 71.0532 6.70679 77.76 14.98 77.76H62.78C71.0532 77.76 77.76 71.0532 77.76 62.78V14.98C77.76 6.70677 71.0532 0 62.78 0Z" fill="url(#paint0_linear_1275_2256)"/>
<g filter="url(#filter0_b_1275_2256)">
<path d="M87.029 22.8757H39.229C30.9558 22.8757 24.249 29.5825 24.249 37.8557V85.6557C24.249 93.929 30.9558 100.636 39.229 100.636H87.029C95.3022 100.636 102.009 93.929 102.009 85.6557V37.8557C102.009 29.5825 95.3022 22.8757 87.029 22.8757Z" fill="url(#paint1_linear_1275_2256)"/>
<path d="M87.029 22.6257H39.229C30.8177 22.6257 23.999 29.4444 23.999 37.8557V85.6557C23.999 94.067 30.8177 100.886 39.229 100.886H87.029C95.4403 100.886 102.259 94.067 102.259 85.6557V37.8557C102.259 29.4444 95.4403 22.6257 87.029 22.6257Z" stroke="url(#paint2_linear_1275_2256)" stroke-width="0.5"/>
</g>
<path d="M63.478 41.5906C70.2808 41.5906 71.0866 41.6166 73.7732 41.7392C76.2572 41.8524 77.6063 42.2675 78.504 42.6164C79.6933 43.0786 80.542 43.6307 81.4335 44.5222C82.3251 45.4138 82.8772 46.2625 83.3394 47.4517C83.6883 48.3495 84.1034 49.6985 84.2166 52.1826C84.3392 54.8691 84.3652 55.675 84.3652 62.4778C84.3652 69.2807 84.3392 70.0865 84.2166 72.773C84.1034 75.2571 83.6883 76.6061 83.3394 77.5039C82.8772 78.6931 82.3251 79.5419 81.4336 80.4334C80.542 81.325 79.6933 81.8771 78.504 82.3392C77.6063 82.6881 76.2572 83.1032 73.7732 83.2165C71.087 83.3391 70.2813 83.365 63.478 83.365C56.6745 83.365 55.8689 83.3391 53.1826 83.2165C50.6986 83.1032 49.3495 82.6881 48.4518 82.3392C47.2625 81.8771 46.4138 81.325 45.5223 80.4334C44.6308 79.5419 44.0786 78.6931 43.6164 77.5039C43.2675 76.6061 42.8524 75.2571 42.7392 72.773C42.6166 70.0865 42.5906 69.2807 42.5906 62.4778C42.5906 55.675 42.6166 54.8691 42.7392 52.1826C42.8524 49.6985 43.2675 48.3495 43.6164 47.4517C44.0786 46.2625 44.6307 45.4138 45.5223 44.5223C46.4138 43.6307 47.2625 43.0786 48.4518 42.6164C49.3495 42.2675 50.6986 41.8524 53.1826 41.7392C55.8692 41.6166 56.675 41.5906 63.478 41.5906ZM63.478 37C56.5585 37 55.6909 37.0293 52.9734 37.1533C50.2616 37.277 48.4095 37.7077 46.7889 38.3375C45.1135 38.9886 43.6927 39.8598 42.2762 41.2762C40.8598 42.6927 39.9886 44.1135 39.3376 45.7889C38.7077 47.4095 38.277 49.2615 38.1533 51.9733C38.0293 54.6908 38 55.5585 38 62.4778C38 69.3972 38.0293 70.2648 38.1533 72.9823C38.277 75.6941 38.7077 77.5462 39.3376 79.1668C39.9886 80.8421 40.8598 82.263 42.2762 83.6795C43.6927 85.0959 45.1135 85.967 46.7889 86.618C48.4095 87.2479 50.2616 87.6786 52.9734 87.8023C55.6909 87.9263 56.5585 87.9556 63.478 87.9556C70.3973 87.9556 71.2649 87.9263 73.9824 87.8023C76.6942 87.6786 78.5463 87.2479 80.1669 86.618C81.8423 85.967 83.2631 85.0959 84.6796 83.6795C86.096 82.263 86.9672 80.8421 87.6183 79.1668C88.2481 77.5462 88.6788 75.6941 88.8025 72.9823C88.9265 70.2648 88.9558 69.3972 88.9558 62.4778C88.9558 55.5585 88.9265 54.6908 88.8025 51.9733C88.6788 49.2615 88.2481 47.4095 87.6183 45.7889C86.9672 44.1135 86.096 42.6927 84.6796 41.2762C83.2631 39.8598 81.8423 38.9886 80.1669 38.3375C78.5463 37.7077 76.6942 37.277 73.9824 37.1533C71.2649 37.0293 70.3973 37 63.478 37Z" fill="url(#paint3_linear_1275_2256)"/>
<path d="M63.4895 49.4062C56.2638 49.4062 50.4062 55.2638 50.4062 62.4894C50.4062 69.7151 56.2638 75.5726 63.4895 75.5726C70.7152 75.5726 76.5727 69.7151 76.5727 62.4894C76.5727 55.2638 70.7152 49.4062 63.4895 49.4062ZM63.4895 70.9821C58.7991 70.9821 54.9969 67.1798 54.9969 62.4894C54.9969 57.7991 58.7991 53.9968 63.4895 53.9968C68.1799 53.9968 71.9821 57.7991 71.9821 62.4894C71.9821 67.1798 68.1799 70.9821 63.4895 70.9821Z" fill="url(#paint4_linear_1275_2256)"/>
<defs>
<filter id="filter0_b_1275_2256" x="5.74902" y="4.37573" width="114.76" height="114.76" filterUnits="userSpaceOnUse" color-interpolation-filters="sRGB">
<feFlood flood-opacity="0" result="BackgroundImageFix"/>
<feGaussianBlur in="BackgroundImageFix" stdDeviation="9"/>
<feComposite in2="SourceAlpha" operator="in" result="effect1_backgroundBlur_1275_2256"/>
<feBlend mode="normal" in="SourceGraphic" in2="effect1_backgroundBlur_1275_2256" result="shape"/>
</filter>
<linearGradient id="paint0_linear_1275_2256" x1="72.2" y1="80.85" x2="6.40001" y2="-2.03002" gradientUnits="userSpaceOnUse">
<stop stop-color="#AA83FF"/>
<stop offset="1" stop-color="#FF3FA4"/>
</linearGradient>
<linearGradient id="paint1_linear_1275_2256" x1="28.639" y1="96.2457" x2="97.619" y2="27.2658" gradientUnits="userSpaceOnUse">
<stop stop-color="white" stop-opacity="0.2"/>
<stop offset="1" stop-color="white" stop-opacity="0.49"/>
</linearGradient>
<linearGradient id="paint2_linear_1275_2256" x1="29.738" y1="28.9914" x2="94.738" y2="98.4914" gradientUnits="userSpaceOnUse">
<stop stop-color="white"/>
<stop offset="1" stop-color="white" stop-opacity="0"/>
</linearGradient>
<linearGradient id="paint3_linear_1275_2256" x1="63.4779" y1="37" x2="63.4779" y2="87.9556" gradientUnits="userSpaceOnUse">
<stop stop-color="#DB1D76"/>
<stop offset="1" stop-color="#940B92"/>
</linearGradient>
<linearGradient id="paint4_linear_1275_2256" x1="63.4895" y1="49.4062" x2="63.4895" y2="75.5726" gradientUnits="userSpaceOnUse">
<stop stop-color="#DB1D76"/>
<stop offset="1" stop-color="#940B92"/>
</linearGradient>
</defs>
</svg>
