<svg width="72" height="71" viewBox="0 0 72 71" fill="none" xmlns="http://www.w3.org/2000/svg">
<path d="M43.696 0H10.4264C4.66804 0 0 4.66804 0 10.4264V43.696C0 49.4543 4.66804 54.1224 10.4264 54.1224H43.696C49.4543 54.1224 54.1224 49.4543 54.1224 43.696V10.4264C54.1224 4.66804 49.4543 0 43.696 0Z" fill="url(#paint0_linear_729_3022)"/>
<g filter="url(#filter0_b_729_3022)">
<path d="M60.5734 15.9229H27.3038C21.5455 15.9229 16.8774 20.5909 16.8774 26.3492V59.6189C16.8774 65.3772 21.5455 70.0452 27.3038 70.0452H60.5734C66.3318 70.0452 70.9998 65.3772 70.9998 59.6189V26.3492C70.9998 20.5909 66.3318 15.9229 60.5734 15.9229Z" fill="url(#paint1_linear_729_3022)"/>
<path d="M60.5734 15.6729H27.3038C21.4074 15.6729 16.6274 20.4528 16.6274 26.3492V59.6189C16.6274 65.5153 21.4074 70.2952 27.3038 70.2952H60.5734C66.4698 70.2952 71.2498 65.5153 71.2498 59.6189V26.3492C71.2498 20.4528 66.4698 15.6729 60.5734 15.6729Z" stroke="url(#paint2_linear_729_3022)" stroke-width="0.5"/>
</g>
<path d="M38.3006 24L26.7406 27.95C26.5224 28.0086 26.3305 28.1393 26.1962 28.3209C26.0618 28.5025 25.9929 28.7242 26.0006 28.95V59.95C26.0006 60.2152 26.1059 60.4696 26.2935 60.6571C26.481 60.8446 26.7354 60.95 27.0006 60.95H27.3306L38.3306 56.69L50.6306 61L62.1906 57C62.4087 56.9414 62.6006 56.8107 62.735 56.6291C62.8694 56.4475 62.9383 56.2258 62.9306 56V25C62.9306 24.7348 62.8252 24.4804 62.6377 24.2929C62.4502 24.1054 62.1958 24 61.9306 24L61.6006 24.07L50.6006 28.26L38.3006 24ZM50.6106 28.31V61V28.31ZM38.3406 56.69V24.1V56.69Z" fill="url(#paint3_linear_729_3022)"/>
<path d="M50.6106 28.31V61M38.3406 56.69V24.1M38.3006 24L26.7406 27.95C26.5224 28.0086 26.3305 28.1393 26.1962 28.3209C26.0618 28.5025 25.9929 28.7242 26.0006 28.95V59.95C26.0006 60.2152 26.1059 60.4696 26.2935 60.6571C26.481 60.8446 26.7354 60.95 27.0006 60.95H27.3306L38.3306 56.69L50.6306 61L62.1906 57C62.4087 56.9414 62.6006 56.8107 62.735 56.6291C62.8694 56.4475 62.9383 56.2258 62.9306 56V25C62.9306 24.7348 62.8252 24.4804 62.6377 24.2929C62.4502 24.1054 62.1958 24 61.9306 24L61.6006 24.07L50.6006 28.26L38.3006 24Z" stroke="url(#paint4_linear_729_3022)" stroke-linecap="round" stroke-linejoin="round"/>
<g filter="url(#filter1_b_729_3022)">
<path d="M42.3887 34.6545C40.2404 32.4485 36.7583 32.4485 34.6113 34.6545C32.4629 36.8604 32.4629 40.4359 34.6113 42.6404L37.447 45.5522C38.0285 46.1493 38.9715 46.1493 39.553 45.5522L42.3887 42.6404C44.5371 40.4345 44.5371 36.859 42.3887 34.6545ZM40.3013 40.4971C39.3066 41.5184 37.6934 41.5184 36.6974 40.4971C35.7026 39.4757 35.7026 37.8192 36.6974 36.7965C37.6921 35.7751 39.3053 35.7751 40.3013 36.7965C41.296 37.8178 41.296 39.4743 40.3013 40.4971Z" fill="url(#paint5_linear_729_3022)"/>
</g>
<defs>
<filter id="filter0_b_729_3022" x="-1.62256" y="-2.57715" width="91.1226" height="91.1223" filterUnits="userSpaceOnUse" color-interpolation-filters="sRGB">
<feFlood flood-opacity="0" result="BackgroundImageFix"/>
<feGaussianBlur in="BackgroundImageFix" stdDeviation="9"/>
<feComposite in2="SourceAlpha" operator="in" result="effect1_backgroundBlur_729_3022"/>
<feBlend mode="normal" in="SourceGraphic" in2="effect1_backgroundBlur_729_3022" result="shape"/>
</filter>
<filter id="filter1_b_729_3022" x="15" y="15" width="47" height="49" filterUnits="userSpaceOnUse" color-interpolation-filters="sRGB">
<feFlood flood-opacity="0" result="BackgroundImageFix"/>
<feGaussianBlur in="BackgroundImageFix" stdDeviation="9"/>
<feComposite in2="SourceAlpha" operator="in" result="effect1_backgroundBlur_729_3022"/>
<feBlend mode="normal" in="SourceGraphic" in2="effect1_backgroundBlur_729_3022" result="shape"/>
</filter>
<linearGradient id="paint0_linear_729_3022" x1="50.2525" y1="56.2731" x2="4.45453" y2="-1.41293" gradientUnits="userSpaceOnUse">
<stop stop-color="#AA83FF"/>
<stop offset="1" stop-color="#FF3FA4"/>
<stop offset="1" stop-color="#FF3FA4"/>
</linearGradient>
<linearGradient id="paint1_linear_729_3022" x1="19.933" y1="66.9897" x2="67.9443" y2="18.9784" gradientUnits="userSpaceOnUse">
<stop stop-color="white" stop-opacity="0.2"/>
<stop offset="1" stop-color="white" stop-opacity="0.49"/>
</linearGradient>
<linearGradient id="paint2_linear_729_3022" x1="20.6979" y1="20.1795" x2="65.939" y2="68.5527" gradientUnits="userSpaceOnUse">
<stop stop-color="white"/>
<stop offset="1" stop-color="white" stop-opacity="0"/>
</linearGradient>
<linearGradient id="paint3_linear_729_3022" x1="44.4656" y1="24" x2="44.4656" y2="61" gradientUnits="userSpaceOnUse">
<stop stop-color="white" stop-opacity="0.73"/>
<stop offset="1" stop-color="white" stop-opacity="0.04"/>
</linearGradient>
<linearGradient id="paint4_linear_729_3022" x1="31.5" y1="26.5" x2="57.5" y2="58" gradientUnits="userSpaceOnUse">
<stop stop-color="white" stop-opacity="0.75"/>
<stop offset="1" stop-color="white" stop-opacity="0.08"/>
</linearGradient>
<linearGradient id="paint5_linear_729_3022" x1="38.5" y1="33.3611" x2="36.9122" y2="46.1642" gradientUnits="userSpaceOnUse">
<stop stop-color="#DB1D76"/>
<stop offset="1" stop-color="#940B92"/>
</linearGradient>
</defs>
</svg>
