<svg width="141" height="141" viewBox="0 0 141 141" fill="none" xmlns="http://www.w3.org/2000/svg">
<g filter="url(#filter0_f_1253_673)">
<path d="M86.696 43H53.4264C47.668 43 43 47.668 43 53.4264V86.696C43 92.4543 47.668 97.1224 53.4264 97.1224H86.696C92.4543 97.1224 97.1224 92.4543 97.1224 86.696V53.4264C97.1224 47.668 92.4543 43 86.696 43Z" fill="url(#paint0_linear_1253_673)"/>
</g>
<path d="M86.696 43H53.4264C47.668 43 43 47.668 43 53.4264V86.696C43 92.4543 47.668 97.1224 53.4264 97.1224H86.696C92.4543 97.1224 97.1224 92.4543 97.1224 86.696V53.4264C97.1224 47.668 92.4543 43 86.696 43Z" fill="url(#paint1_linear_1253_673)"/>
<g filter="url(#filter1_b_1253_673)">
<path d="M103.573 58.9229H70.3038C64.5455 58.9229 59.8774 63.5909 59.8774 69.3492V102.619C59.8774 108.377 64.5455 113.045 70.3038 113.045H103.573C109.332 113.045 114 108.377 114 102.619V69.3492C114 63.5909 109.332 58.9229 103.573 58.9229Z" fill="url(#paint2_linear_1253_673)"/>
<path d="M103.573 58.6729H70.3038C64.4074 58.6729 59.6274 63.4528 59.6274 69.3492V102.619C59.6274 108.515 64.4074 113.295 70.3038 113.295H103.573C109.47 113.295 114.25 108.515 114.25 102.619V69.3492C114.25 63.4528 109.47 58.6729 103.573 58.6729Z" stroke="url(#paint3_linear_1253_673)" stroke-width="0.5"/>
</g>
<path d="M94 96H102M98 92V100" stroke="url(#paint4_linear_1253_673)" stroke-width="2" stroke-linecap="round" stroke-linejoin="round"/>
<rect x="69.5" y="71.5" width="35" height="26.5294" rx="2.5" fill="url(#paint5_linear_1253_673)" stroke="url(#paint6_linear_1253_673)"/>
<path d="M69.9473 77.6318L86.9999 85.2108L104.053 77.6318" stroke="url(#paint7_linear_1253_673)" stroke-linecap="round" stroke-linejoin="round"/>
<defs>
<filter id="filter0_f_1253_673" x="0" y="0" width="140.123" height="140.122" filterUnits="userSpaceOnUse" color-interpolation-filters="sRGB">
<feFlood flood-opacity="0" result="BackgroundImageFix"/>
<feBlend mode="normal" in="SourceGraphic" in2="BackgroundImageFix" result="shape"/>
<feGaussianBlur stdDeviation="21.5" result="effect1_foregroundBlur_1253_673"/>
</filter>
<filter id="filter1_b_1253_673" x="41.3774" y="40.4229" width="91.1226" height="91.1221" filterUnits="userSpaceOnUse" color-interpolation-filters="sRGB">
<feFlood flood-opacity="0" result="BackgroundImageFix"/>
<feGaussianBlur in="BackgroundImageFix" stdDeviation="9"/>
<feComposite in2="SourceAlpha" operator="in" result="effect1_backgroundBlur_1253_673"/>
<feBlend mode="normal" in="SourceGraphic" in2="effect1_backgroundBlur_1253_673" result="shape"/>
</filter>
<linearGradient id="paint0_linear_1253_673" x1="93.2525" y1="99.2731" x2="47.4545" y2="41.5871" gradientUnits="userSpaceOnUse">
<stop stop-color="#AA83FF"/>
<stop offset="1" stop-color="#FF3FA4"/>
<stop offset="1" stop-color="#FF3FA4"/>
</linearGradient>
<linearGradient id="paint1_linear_1253_673" x1="93.2525" y1="99.2731" x2="47.4545" y2="41.5871" gradientUnits="userSpaceOnUse">
<stop stop-color="#AA83FF"/>
<stop offset="1" stop-color="#FF3FA4"/>
<stop offset="1" stop-color="#FF3FA4"/>
</linearGradient>
<linearGradient id="paint2_linear_1253_673" x1="62.933" y1="109.99" x2="110.944" y2="61.9784" gradientUnits="userSpaceOnUse">
<stop stop-color="white" stop-opacity="0.2"/>
<stop offset="1" stop-color="white" stop-opacity="0.49"/>
</linearGradient>
<linearGradient id="paint3_linear_1253_673" x1="63.6979" y1="63.1795" x2="108.939" y2="111.553" gradientUnits="userSpaceOnUse">
<stop stop-color="white"/>
<stop offset="1" stop-color="white" stop-opacity="0"/>
</linearGradient>
<linearGradient id="paint4_linear_1253_673" x1="98" y1="92" x2="98" y2="100" gradientUnits="userSpaceOnUse">
<stop stop-color="#DB1D76"/>
<stop offset="1" stop-color="#940B92"/>
</linearGradient>
<linearGradient id="paint5_linear_1253_673" x1="72" y1="72.5294" x2="103.947" y2="96.4019" gradientUnits="userSpaceOnUse">
<stop stop-color="white" stop-opacity="0.64"/>
<stop offset="1" stop-color="white" stop-opacity="0"/>
</linearGradient>
<linearGradient id="paint6_linear_1253_673" x1="87" y1="71.4737" x2="86.0541" y2="97.0702" gradientUnits="userSpaceOnUse">
<stop offset="0.171111" stop-color="white"/>
<stop offset="1" stop-color="white" stop-opacity="0"/>
</linearGradient>
<linearGradient id="paint7_linear_1253_673" x1="86.9999" y1="74.6003" x2="86.9999" y2="85.2108" gradientUnits="userSpaceOnUse">
<stop stop-color="white"/>
<stop offset="1" stop-color="white" stop-opacity="0.23"/>
</linearGradient>
</defs>
</svg>
