<svg width="129" height="141" viewBox="0 0 129 141" fill="none" xmlns="http://www.w3.org/2000/svg">
<g filter="url(#filter0_f_1253_659)">
<path d="M86.696 43H53.4264C47.668 43 43 47.668 43 53.4263V86.696C43 92.4543 47.668 97.1224 53.4264 97.1224H86.696C92.4543 97.1224 97.1224 92.4543 97.1224 86.696V53.4263C97.1224 47.668 92.4543 43 86.696 43Z" fill="url(#paint0_linear_1253_659)"/>
</g>
<path d="M86.696 43H53.4264C47.668 43 43 47.668 43 53.4263V86.696C43 92.4543 47.668 97.1224 53.4264 97.1224H86.696C92.4543 97.1224 97.1224 92.4543 97.1224 86.696V53.4263C97.1224 47.668 92.4543 43 86.696 43Z" fill="url(#paint1_linear_1253_659)"/>
<g filter="url(#filter1_b_1253_659)">
<path d="M103.573 58.9229H70.3038C64.5455 58.9229 59.8774 63.5909 59.8774 69.3492V102.619C59.8774 108.377 64.5455 113.045 70.3038 113.045H103.573C109.332 113.045 114 108.377 114 102.619V69.3492C114 63.5909 109.332 58.9229 103.573 58.9229Z" fill="url(#paint2_linear_1253_659)"/>
<path d="M103.573 58.6729H70.3038C64.4074 58.6729 59.6274 63.4528 59.6274 69.3492V102.619C59.6274 108.515 64.4074 113.295 70.3038 113.295H103.573C109.47 113.295 114.25 108.515 114.25 102.619V69.3492C114.25 63.4528 109.47 58.6729 103.573 58.6729Z" stroke="url(#paint3_linear_1253_659)" stroke-width="0.5"/>
</g>
<path fill-rule="evenodd" clip-rule="evenodd" d="M104.795 73.7742C105.433 74.4223 105.892 75.229 106.128 76.1138C107.484 81.6632 107.17 90.4277 106.154 96.1912C105.918 97.076 105.459 97.8827 104.821 98.5308C104.184 99.179 103.39 99.6461 102.519 99.8855C99.3327 100.769 86.5068 100.769 86.5068 100.769C86.5068 100.769 73.681 100.769 70.4942 99.8855C69.6237 99.6461 68.8301 99.179 68.1925 98.5308C67.5548 97.8827 67.0953 97.076 66.8598 96.1912C65.4955 90.6659 65.8695 81.8961 66.8334 76.1406C67.069 75.2558 67.5285 74.4491 68.1661 73.8009C68.8038 73.1528 69.5974 72.6857 70.4679 72.4463C73.6546 71.5629 86.4805 71.5361 86.4805 71.5361C86.4805 71.5361 99.3064 71.5361 102.493 72.4195C103.364 72.659 104.157 73.126 104.795 73.7742ZM93.0383 86.1525L82.3983 92.4167V79.8883L93.0383 86.1525Z" fill="url(#paint4_linear_1253_659)"/>
<defs>
<filter id="filter0_f_1253_659" x="0" y="0" width="140.123" height="140.122" filterUnits="userSpaceOnUse" color-interpolation-filters="sRGB">
<feFlood flood-opacity="0" result="BackgroundImageFix"/>
<feBlend mode="normal" in="SourceGraphic" in2="BackgroundImageFix" result="shape"/>
<feGaussianBlur stdDeviation="21.5" result="effect1_foregroundBlur_1253_659"/>
</filter>
<filter id="filter1_b_1253_659" x="41.3774" y="40.4229" width="91.1226" height="91.1221" filterUnits="userSpaceOnUse" color-interpolation-filters="sRGB">
<feFlood flood-opacity="0" result="BackgroundImageFix"/>
<feGaussianBlur in="BackgroundImageFix" stdDeviation="9"/>
<feComposite in2="SourceAlpha" operator="in" result="effect1_backgroundBlur_1253_659"/>
<feBlend mode="normal" in="SourceGraphic" in2="effect1_backgroundBlur_1253_659" result="shape"/>
</filter>
<linearGradient id="paint0_linear_1253_659" x1="93.2525" y1="99.273" x2="47.4545" y2="41.5871" gradientUnits="userSpaceOnUse">
<stop stop-color="#AA83FF"/>
<stop offset="1" stop-color="#FF3FA4"/>
</linearGradient>
<linearGradient id="paint1_linear_1253_659" x1="93.2525" y1="99.273" x2="47.4545" y2="41.5871" gradientUnits="userSpaceOnUse">
<stop stop-color="#AA83FF"/>
<stop offset="1" stop-color="#FF3FA4"/>
</linearGradient>
<linearGradient id="paint2_linear_1253_659" x1="62.933" y1="109.99" x2="110.944" y2="61.9784" gradientUnits="userSpaceOnUse">
<stop stop-color="white" stop-opacity="0.2"/>
<stop offset="1" stop-color="white" stop-opacity="0.49"/>
</linearGradient>
<linearGradient id="paint3_linear_1253_659" x1="63.6979" y1="63.1795" x2="108.939" y2="111.553" gradientUnits="userSpaceOnUse">
<stop stop-color="white"/>
<stop offset="1" stop-color="white" stop-opacity="0"/>
</linearGradient>
<linearGradient id="paint4_linear_1253_659" x1="86.5013" y1="71.5361" x2="86.5013" y2="100.769" gradientUnits="userSpaceOnUse">
<stop stop-color="#DB1D76"/>
<stop offset="0.411458" stop-color="#BE1682"/>
<stop offset="1" stop-color="#940B92"/>
</linearGradient>
</defs>
</svg>
