<svg width="103" height="102" viewBox="0 0 103 102" fill="none" xmlns="http://www.w3.org/2000/svg">
<path d="M62.78 0H14.98C6.70679 0 0 6.70677 0 14.98V62.78C0 71.0532 6.70679 77.76 14.98 77.76H62.78C71.0532 77.76 77.76 71.0532 77.76 62.78V14.98C77.76 6.70677 71.0532 0 62.78 0Z" fill="url(#paint0_linear_1275_2884)"/>
<g filter="url(#filter0_b_1275_2884)">
<path d="M87.029 22.8757H39.229C30.9558 22.8757 24.249 29.5825 24.249 37.8557V85.6557C24.249 93.929 30.9558 100.636 39.229 100.636H87.029C95.3022 100.636 102.009 93.929 102.009 85.6557V37.8557C102.009 29.5825 95.3022 22.8757 87.029 22.8757Z" fill="url(#paint1_linear_1275_2884)"/>
<path d="M87.029 22.6257H39.229C30.8177 22.6257 23.999 29.4444 23.999 37.8557V85.6557C23.999 94.067 30.8177 100.886 39.229 100.886H87.029C95.4403 100.886 102.259 94.067 102.259 85.6557V37.8557C102.259 29.4444 95.4403 22.6257 87.029 22.6257Z" stroke="url(#paint2_linear_1275_2884)" stroke-width="0.5"/>
</g>
<path fill-rule="evenodd" clip-rule="evenodd" d="M88.7832 44.2155C89.6994 45.1467 90.3595 46.3057 90.698 47.5769C92.6467 55.55 92.1964 68.1423 90.7358 76.4231C90.3974 77.6943 89.7372 78.8533 88.821 79.7845C87.9049 80.7157 86.7647 81.3868 85.514 81.7308C80.9355 83 62.508 83 62.508 83C62.508 83 44.0805 83 39.502 81.7308C38.2513 81.3868 37.1111 80.7157 36.1949 79.7845C35.2788 78.8533 34.6186 77.6943 34.2802 76.4231C32.3201 68.4846 32.8574 55.8846 34.2424 47.6154C34.5808 46.3441 35.2409 45.1852 36.1571 44.2539C37.0733 43.3227 38.2134 42.6517 39.4641 42.3077C44.0426 41.0385 62.4702 41 62.4702 41C62.4702 41 80.8977 41 85.4762 42.2692C86.7269 42.6132 87.8671 43.2843 88.7832 44.2155ZM71.892 62L56.6051 71V53L71.892 62Z" fill="url(#paint3_linear_1275_2884)"/>
<defs>
<filter id="filter0_b_1275_2884" x="5.74902" y="4.37573" width="114.76" height="114.76" filterUnits="userSpaceOnUse" color-interpolation-filters="sRGB">
<feFlood flood-opacity="0" result="BackgroundImageFix"/>
<feGaussianBlur in="BackgroundImageFix" stdDeviation="9"/>
<feComposite in2="SourceAlpha" operator="in" result="effect1_backgroundBlur_1275_2884"/>
<feBlend mode="normal" in="SourceGraphic" in2="effect1_backgroundBlur_1275_2884" result="shape"/>
</filter>
<linearGradient id="paint0_linear_1275_2884" x1="72.2" y1="80.85" x2="6.40001" y2="-2.03002" gradientUnits="userSpaceOnUse">
<stop stop-color="#AA83FF"/>
<stop offset="1" stop-color="#FF3FA4"/>
</linearGradient>
<linearGradient id="paint1_linear_1275_2884" x1="28.639" y1="96.2457" x2="97.619" y2="27.2658" gradientUnits="userSpaceOnUse">
<stop stop-color="white" stop-opacity="0.2"/>
<stop offset="1" stop-color="white" stop-opacity="0.49"/>
</linearGradient>
<linearGradient id="paint2_linear_1275_2884" x1="29.738" y1="28.9914" x2="94.738" y2="98.4914" gradientUnits="userSpaceOnUse">
<stop stop-color="white"/>
<stop offset="1" stop-color="white" stop-opacity="0"/>
</linearGradient>
<linearGradient id="paint3_linear_1275_2884" x1="62.5" y1="41" x2="62.5" y2="83" gradientUnits="userSpaceOnUse">
<stop stop-color="#DB1D76"/>
<stop offset="0.411458" stop-color="#BE1682"/>
<stop offset="1" stop-color="#940B92"/>
</linearGradient>
</defs>
</svg>
