<svg width="175" height="43" viewBox="0 0 175 43" fill="none" xmlns="http://www.w3.org/2000/svg">
<g filter="url(#filter0_d_1586_1129)">
<path d="M22.5 10L25.3064 18.6373H34.3882L27.0409 23.9754L29.8473 32.6127L22.5 27.2746L15.1527 32.6127L17.9591 23.9754L10.6118 18.6373H19.6936L22.5 10Z" fill="#DB1D76"/>
</g>
<g filter="url(#filter1_d_1586_1129)">
<path d="M57.5 10L60.3064 18.6373H69.3882L62.0409 23.9754L64.8473 32.6127L57.5 27.2746L50.1527 32.6127L52.9591 23.9754L45.6118 18.6373H54.6936L57.5 10Z" fill="#DB1D76"/>
</g>
<g filter="url(#filter2_d_1586_1129)">
<path d="M92.5 10L95.3064 18.6373H104.388L97.0409 23.9754L99.8473 32.6127L92.5 27.2746L85.1527 32.6127L87.9591 23.9754L80.6118 18.6373H89.6936L92.5 10Z" fill="#DB1D76"/>
</g>
<path d="M127.5 10L130.306 18.6373H139.388L132.041 23.9754L134.847 32.6127L127.5 27.2746L120.153 32.6127L122.959 23.9754L115.612 18.6373H124.694L127.5 10Z" fill="#FFEAFF"/>
<path d="M162.5 10L165.306 18.6373H174.388L167.041 23.9754L169.847 32.6127L162.5 27.2746L155.153 32.6127L157.959 23.9754L150.612 18.6373H159.694L162.5 10Z" fill="#FFEAFF"/>
<defs>
<filter id="filter0_d_1586_1129" x="0.611328" y="0" width="43.7773" height="42.6123" filterUnits="userSpaceOnUse" color-interpolation-filters="sRGB">
<feFlood flood-opacity="0" result="BackgroundImageFix"/>
<feColorMatrix in="SourceAlpha" type="matrix" values="0 0 0 0 0 0 0 0 0 0 0 0 0 0 0 0 0 0 127 0" result="hardAlpha"/>
<feOffset/>
<feGaussianBlur stdDeviation="5"/>
<feComposite in2="hardAlpha" operator="out"/>
<feColorMatrix type="matrix" values="0 0 0 0 1 0 0 0 0 0.583713 0 0 0 0 0.77871 0 0 0 0.3 0"/>
<feBlend mode="normal" in2="BackgroundImageFix" result="effect1_dropShadow_1586_1129"/>
<feBlend mode="normal" in="SourceGraphic" in2="effect1_dropShadow_1586_1129" result="shape"/>
</filter>
<filter id="filter1_d_1586_1129" x="35.6113" y="0" width="43.7773" height="42.6123" filterUnits="userSpaceOnUse" color-interpolation-filters="sRGB">
<feFlood flood-opacity="0" result="BackgroundImageFix"/>
<feColorMatrix in="SourceAlpha" type="matrix" values="0 0 0 0 0 0 0 0 0 0 0 0 0 0 0 0 0 0 127 0" result="hardAlpha"/>
<feOffset/>
<feGaussianBlur stdDeviation="5"/>
<feComposite in2="hardAlpha" operator="out"/>
<feColorMatrix type="matrix" values="0 0 0 0 1 0 0 0 0 0.583713 0 0 0 0 0.77871 0 0 0 0.3 0"/>
<feBlend mode="normal" in2="BackgroundImageFix" result="effect1_dropShadow_1586_1129"/>
<feBlend mode="normal" in="SourceGraphic" in2="effect1_dropShadow_1586_1129" result="shape"/>
</filter>
<filter id="filter2_d_1586_1129" x="70.6113" y="0" width="43.7773" height="42.6123" filterUnits="userSpaceOnUse" color-interpolation-filters="sRGB">
<feFlood flood-opacity="0" result="BackgroundImageFix"/>
<feColorMatrix in="SourceAlpha" type="matrix" values="0 0 0 0 0 0 0 0 0 0 0 0 0 0 0 0 0 0 127 0" result="hardAlpha"/>
<feOffset/>
<feGaussianBlur stdDeviation="5"/>
<feComposite in2="hardAlpha" operator="out"/>
<feColorMatrix type="matrix" values="0 0 0 0 1 0 0 0 0 0.583713 0 0 0 0 0.77871 0 0 0 0.3 0"/>
<feBlend mode="normal" in2="BackgroundImageFix" result="effect1_dropShadow_1586_1129"/>
<feBlend mode="normal" in="SourceGraphic" in2="effect1_dropShadow_1586_1129" result="shape"/>
</filter>
</defs>
</svg>
