<svg width="1440" height="1300" viewBox="0 0 1440 1300" fill="none" xmlns="http://www.w3.org/2000/svg">
<path d="M0.000488281 0.00159928C0.000488281 0.00159928 109.001 -0.0019991 293.001 0.00159928C477.001 0.00519767 630.501 0.0013332 817.501 0.00159928C1004.5 0.00186536 981.001 -2.76994e-05 1113.5 0.00153311C1246 0.00309391 1440 0.00159928 1440 0.00159928V1223.25C1440 1223.25 1315.5 1325.76 1175.5 1250.29C993.581 1152.22 844 1107.23 698.5 1089.21C553 1071.19 345 1231.14 196 1285.2C47.0005 1339.27 0.000488281 1227.76 0.000488281 1227.76V0.00159928Z" fill="url(#paint0_linear_1148_1687)"/>
<g filter="url(#filter0_b_1148_1687)">
<path d="M0 0.00110403C0 0.00110403 86.9995 0.00313787 298 0.00110403C509 -0.000929814 686 0.000321419 812.5 0.00110403C939 0.00188664 1098 0.000997894 1246.5 0.00112469C1395 0.00125149 1440 0.00112469 1440 0.00112469V1000.91C1440 1000.91 1317 1072.47 1164.5 1147.62C1012 1222.77 905 1247.81 681 1114.22C457 980.629 370.5 1072.47 255.5 1155.97C140.5 1239.46 0 1253.78 0 1253.78V0.00110403Z" fill="url(#paint1_radial_1148_1687)"/>
</g>
<defs>
<filter id="filter0_b_1148_1687" x="-42" y="-42" width="1524" height="1337.78" filterUnits="userSpaceOnUse" color-interpolation-filters="sRGB">
<feFlood flood-opacity="0" result="BackgroundImageFix"/>
<feGaussianBlur in="BackgroundImageFix" stdDeviation="21"/>
<feComposite in2="SourceAlpha" operator="in" result="effect1_backgroundBlur_1148_1687"/>
<feBlend mode="normal" in="SourceGraphic" in2="effect1_backgroundBlur_1148_1687" result="shape"/>
</filter>
<linearGradient id="paint0_linear_1148_1687" x1="720" y1="-105.915" x2="720" y2="1300" gradientUnits="userSpaceOnUse">
<stop stop-color="#DB1D76"/>
<stop offset="1" stop-color="#DB1D76" stop-opacity="0.15"/>
</linearGradient>
<radialGradient id="paint1_radial_1148_1687" cx="0" cy="0" r="1" gradientUnits="userSpaceOnUse" gradientTransform="translate(0.000172618 -23.6175) rotate(23.9423) scale(1575.57 9748.12)">
<stop stop-color="white" stop-opacity="0.4"/>
<stop offset="1" stop-color="white" stop-opacity="0"/>
</radialGradient>
</defs>
</svg>
